<?xml version="1.0" encoding="UTF-8" standalone="no"?>
<!-- Created with Inkscape (http://www.inkscape.org/) -->

<svg
   width="313.67905"
   height="296.25299"
   viewBox="0 0 82.994247 78.383601"
   version="1.1"
   id="svg5"
   xml:space="preserve"
   xmlns="http://www.w3.org/2000/svg"
   xmlns:svg="http://www.w3.org/2000/svg"><defs
     id="defs2" /><g
     style="fill:#010101;fill-opacity:1"
     id="g287"
     transform="matrix(2.7674895,0,0,2.7674895,-2.775792,-5.0728083)"><path
       d="m 13.094484,22.215554 0.953698,0.004 0.01042,1.857777 -0.886711,0.01588 -0.04714,-0.575593 -0.004,-0.649031 z m 7.126938,-0.04714 v 2.019042 l -0.799877,0.05805 -0.03225,-1.068321 -0.09775,-0.986945 z m -9.53401,-0.0064 1.339247,0.06947 -0.120081,0.79541 v 0.755714 l 0.08485,0.324516 -1.296078,0.06053 z m 6.339962,-0.0521 0.780029,0.05061 -0.03077,1.2018 0.11363,0.95469 -0.831138,-0.02829 -0.03077,-2.178819 z m -2.488945,-5.270649 -0.02679,0.163746 0.123554,0.14489 -0.0089,0.240162 0.109164,0.16722 -0.02928,0.203442 0.01538,0.02183 -1.145232,0.04565 0.01241,-0.09428 -0.404901,-0.219322 -0.0134,-0.213862 0.179625,-0.0089 0.01786,-0.370662 z m 3.21191,-0.285812 -0.0059,0.326004 0.252566,0.01042 -0.0099,0.198481 -0.489255,0.321042 -0.05309,0.159777 -1.153172,0.05557 0.006,-0.114125 0.06947,-0.111646 0.0059,-0.09527 4.97e-4,-0.141418 0.04168,-0.09676 0.01935,-0.09924 v -0.05707 l 0.04962,-0.200465 z m 5.514284,-3.758725 -0.04962,0.02481 c -1.47471,0.714034 -3.187596,1.283673 -4.982356,1.623571 l -0.129509,0.02034 c -1.149695,0.148837 -2.823879,0.298193 -4.318436,0.384532 q -1.007785,0.06153 -2.017554,0.07245 c -0.07245,0.003 -0.157792,0.0045 -0.243635,0.0045 -0.34089,0 -0.67533,-0.0263 -1.00183,-0.07741 l 0.03622,0.0045 C 9.9629581,14.709518 9.4662607,14.553711 8.9839532,14.369124 l 0.085843,0.02878 -0.1563034,-0.06203 0.2143589,0.726934 -0.5706314,0.502156 0.1538224,0.27043 0.2729107,0.02034 0.6525045,0.08138 0.1002326,0.318561 0.3939835,0.03523 0.196992,0.668384 0.05706,0.004 c 0,0 0.829648,0.07145 1.092635,0.07145 0.226268,0 0.576586,-0.02481 0.66491,-0.03126 l 0.01489,0.245619 0.178137,0.03325 v 0.195504 l -0.496202,0.44013 0.09726,0.01737 c -0.08684,0.0059 -0.140922,0.01141 -0.310126,0.01836 -0.08832,0.0055 -0.19203,0.0084 -0.295736,0.0084 -0.158288,0 -0.315088,-0.0069 -0.469903,-0.02134 l 0.01985,0.0015 c -0.122066,-0.02233 -0.272911,-0.04168 -0.426237,-0.0526 l -0.01389,-0.001 h -0.03473 l -0.07542,0.08038 -0.02828,0.276384 h 0.09428 l 0.03424,0.688728 1.818577,-0.06996 -0.127027,2.283022 -0.01241,0.215351 -1.390355,-0.0789 -0.01241,-0.471887 h 0.333447 l 0.03523,-0.260506 0.287796,-0.066 0.13844,-0.193518 -1.308978,-0.316081 -1.0574049,0.313599 0.2882929,0.240658 h 0.1027137 l 0.015382,0.206916 0.3061561,0.01737 v 0.473376 l -0.3790977,0.09726 0.1175997,0.250582 0.065002,0.04218 v 0.511582 h 0.2128703 v 2.043853 l -0.3508142,0.0531 0.060536,0.773081 0.2069159,0.03474 -0.034238,1.452381 1.1179412,0.02034 -0.198481,-1.428067 1.229091,-0.02977 -0.08683,0.673842 -0.154815,0.640099 1.617615,0.02034 0.01687,-1.413677 0.819724,-0.07443 -0.04466,0.802357 -0.0392,0.613801 h 1.012748 l -0.03275,-1.426082 0.109164,0.01687 0.04168,-0.862894 H 15.00387 l -0.03573,-0.210885 -0.08138,-0.799876 0.03027,-0.845527 h 0.183099 v -0.73289 l -0.225772,0.01687 0.02481,-0.499674 0.26646,-0.0268 0.01439,-0.218328 0.106683,-0.01538 0.31608,-0.241154 -1.132827,-0.232718 -1.060382,0.2352 0.177144,0.290774 0.148364,-0.01241 0.03325,-0.0025 0.02084,0.273902 0.254055,-0.0124 0.0025,0.417801 -0.946255,-0.02184 0.03275,-0.543837 0.03672,-0.574104 v -0.752241 l 0.02977,-0.71453 2.160956,-0.110157 2.576277,-0.14886 0.02034,0.417801 -0.09428,1.208747 -0.0392,1.049961 -0.818732,-0.01439 -0.004,-0.631168 0.355776,-0.0129 0.01737,-0.23123 0.16722,-0.0253 -0.0074,-0.03523 0.09428,-0.0059 0.179625,-0.240658 -1.246457,-0.292262 -1.231572,0.263979 0.159777,0.278865 0.08684,-0.0064 v 0.05508 h 0.152334 v 0.249094 l 0.325012,0.0049 -0.004,0.530936 h -0.326987 l -0.0089,0.313102 0.116111,0.0134 -0.0129,0.606358 0.243635,0.0124 -0.02729,2.241341 -0.324516,0.06699 0.0099,0.26249 h 0.109164 v 0.610824 h 0.179128 l -0.04317,0.747279 -0.06947,0.814762 1.345697,0.03523 -0.04317,-0.726934 -0.08535,-0.525974 -0.0134,-0.367685 0.821709,-0.01489 -0.02481,0.621244 -0.0055,0.824686 0.640595,0.05061 0.776555,-0.03077 0.33047,-0.09726 -0.154815,-0.471392 -0.03275,-0.620251 -0.04962,-0.361731 0.764646,-0.02779 -0.03523,0.459979 -0.004,0.939309 0.457498,0.04267 0.391502,-0.0099 0.258025,-0.08038 -0.116111,-0.882742 -0.03027,-0.534409 0.154815,-0.01687 0.004,-0.554753 0.04962,-0.01042 -0.01687,-0.26646 h -0.18806 l -0.03027,-0.326997 -0.01439,-1.66922 0.137447,-0.004 V 21.62408 l 0.05955,0.0084 v -0.285812 l -0.206916,-0.01687 0.004,-0.518531 0.353295,-0.03175 -0.02034,-0.224282 0.161265,-0.0129 -0.01489,-0.07245 0.359746,-0.179625 -1.27474,-0.25604 -1.165577,0.235696 0.143402,0.267948 0.13844,-0.01241 0.0084,0.04763 h 0.126035 l 0.0069,0.263979 0.339402,-0.004 0.02183,0.479331 -1.035572,-0.0074 -0.131493,-0.903582 -0.110157,-0.512079 -0.08981,-0.911026 0.04664,-0.462459 2.385239,-0.18161 0.0074,-0.816251 0.124546,-0.03077 -0.01439,-0.235695 -0.148365,-0.08535 h -0.02282 l -0.221306,0.03077 -0.491735,0.07195 q -0.503148,0.07344 -1.007785,0.133974 l -0.117599,0.01241 -0.0094,-0.110157 -0.486773,-0.254055 0.004,-0.170693 0.168212,-0.0049 0.01241,-0.416809 c 0.05558,-0.004 0.218329,-0.01489 0.477842,-0.03821 0.319553,-0.02431 0.608342,-0.06401 0.891673,-0.119584 l -0.04763,0.0079 c 0.370166,-0.08683 0.900108,-0.17367 0.900108,-0.17367 l 0.04714,-0.0079 0.253062,-0.687239 0.499179,-0.14489 0.04069,-0.114127 1.103552,-0.305163 0.189549,-0.156304 -0.444596,-0.969577 0.02927,-0.146379 0.213367,-0.111646 0.18409,-0.561699 -0.156303,-0.138441 z"
       id="path278"
       style="stroke-width:0.496201;fill:#010101;fill-opacity:1" /></g><path
     d="m 38.342877,9.6562374 c -1.172864,0.27093 -0.398888,1.3654796 0.05841,1.8191806 0.457301,0.453701 0.169878,0.615751 0.878329,0.564836 A 11.534009,11.534009 0 0 0 40.654454,11.849072 3.4035824,3.4035824 0 0 0 39.679478,9.7176824 C 39.382567,9.4353241 38.521269,8.9643834 38.373039,9.6443004"
     fill="#f6d2a2"
     id="path343"
     style="stroke-width:0.636184" /><path
     d="m 37.596568,10.425238 a 0.76342035,0.76342035 0 0 1 0.01386,-0.351646 0.78886769,0.78886769 0 0 1 0.61817,-0.5129966 0.52167057,0.52167057 0 0 1 0.355788,-0.3554882 1.4632224,1.4632224 0 0 1 1.152651,0.4374902 3.4990099,3.4990099 0 0 1 1.007379,2.2030986 l 0.01703,0.0939 -0.09389,0.01703 a 8.270387,8.270387 0 0 1 -1.076099,0.162855 l -0.312984,0.05677 c -0.493932,0.05726 -0.586081,-0.023 -0.694094,-0.26204 a 1.4186894,1.4186894 0 0 0 -0.249704,-0.342657 2.601991,2.601991 0 0 1 -0.738107,-1.146316 z m 2.873651,1.121037 A 3.1809181,3.1809181 0 0 0 39.573033,9.8081114 1.2723672,1.2723672 0 0 0 38.638859,9.4344433 0.31809181,0.31809181 0 0 0 38.420816,9.6938244 l 0.01136,0.0626 -0.06887,0.01249 a 0.63618362,0.63618362 0 0 0 -0.515685,0.3650956 1.666801,1.666801 0 0 0 0.629945,1.262919 1.6413538,1.6413538 0 0 1 0.290038,0.387055 c 0.08586,0.152533 0.10519,0.187821 0.497832,0.142464 l 0.312984,-0.05677 a 8.9065708,8.9065708 0 0 0 0.945768,-0.132755 l -0.0352,-0.19405 z"
     fill="#010101"
     id="path345"
     style="stroke-width:0.636184" /><path
     d="M 38.342877,9.6562374 A 0.9479136,0.9479136 0 0 0 38.69094,10.078026"
     fill="#c7b199"
     id="path347"
     style="stroke-width:0.636184" /><path
     d="m 38.230202,9.6766744 a 0.11670111,0.11670111 0 0 1 0.206599,-0.1085961 l 0.01363,0.075117 a 0.6870783,0.6870783 0 0 0 0.262754,0.3079491 0.1157881,0.1157881 0 1 1 -0.104791,0.2065096 0.89065708,0.89065708 0 0 1 -0.357176,-0.4007386 l -0.01477,-0.08138 z"
     fill="#010101"
     id="path349"
     style="stroke-width:0.636184" /><path
     d="m 52.915972,9.8319144 c 0.431038,-4.7528426 6.819587,-2.4331151 5.11764,1.6579926 z"
     fill="#74cddd"
     id="path351"
     style="stroke-width:0.636184" /><path
     d="m 52.794737,9.9120954 -0.01589,-0.08763 c 0.12918,-1.355351 0.748652,-2.2888538 1.741733,-2.6241593 a 3.0473196,3.0473196 0 0 1 3.082579,0.8827044 3.0791287,3.0791287 0 0 1 0.504992,3.4257125 l -0.04044,0.09786 z m 5.359167,-0.3255085 a 2.6910567,2.6910567 0 0 0 -0.6942,-1.367646 2.8119316,2.8119316 0 0 0 -2.845323,-0.8222886 c -0.882678,0.3023484 -1.444077,1.1283302 -1.58058,2.3363021 l 4.919661,1.5645916 a 3.1809181,3.1809181 0 0 0 0.18507,-1.6887736 z"
     fill="#010101"
     id="path353"
     style="stroke-width:0.636184" /><path
     d="m 61.65832,29.013829 c 3.153336,3.12638 -1.893381,7.384517 -4.106941,3.486371 z"
     fill="#74cddd"
     id="path355"
     style="stroke-width:0.636184" /><path
     d="m 57.404583,32.475101 4.257785,-3.617182 0.0711,0.07116 a 3.0027867,3.0027867 0 0 1 0.87152,3.236382 3.0854905,3.0854905 0 0 1 -2.532981,2.004734 c -0.637323,0.05094 -1.769044,-0.09292 -2.620229,-1.613132 z m 4.249688,-3.305362 -3.956096,3.355559 a 2.487478,2.487478 0 0 0 2.351736,1.416138 2.8501027,2.8501027 0 0 0 2.346847,-1.85459 2.7037804,2.7037804 0 0 0 -0.742487,-2.917107 z"
     fill="#010101"
     id="path357"
     style="stroke-width:0.636184" /><path
     d="m 21.534997,33.535491 c -1.027813,0.349824 -3.438999,0.560133 -3.208284,-1.044677 -0.10067,-1.802708 2.357406,-0.756483 3.370504,-1.439356 a 3.2381746,3.2381746 0 0 1 -0.16222,2.484033 z"
     fill="#f6d2a2"
     id="path359"
     style="stroke-width:0.636184" /><path
     d="m 18.435389,31.666468 0.03227,-0.03935 c 0.359571,-0.387994 1.032358,-0.395472 1.677396,-0.409265 a 2.9646157,2.9646157 0 0 0 1.488723,-0.259602 l 0.131294,-0.08976 0.0624,0.174665 a 3.378135,3.378135 0 0 1 -0.172192,2.56638 l -0.05247,0.06393 c -0.660575,0.223255 -2.261659,0.489401 -3.00511,-0.12899 a 1.0624266,1.0624266 0 0 1 -0.349823,-1.027814 1.1514924,1.1514924 0 0 1 0.187496,-0.850188 z m 3.193078,-0.44099 a 3.6453321,3.6453321 0 0 1 -1.470305,0.217105 2.2202809,2.2202809 0 0 0 -1.517485,0.334756 0.90974255,0.90974255 0 0 0 -0.172469,0.681463 0.83976239,0.83976239 0 0 0 0.271787,0.832084 c 0.599957,0.492394 1.973907,0.352579 2.74508,0.104873 a 2.9900631,2.9900631 0 0 0 0.139355,-2.165364 z"
     fill="#010101"
     id="path361"
     style="stroke-width:0.636184" /><path
     d="m 18.233277,32.414132 a 0.11451305,0.11451305 0 0 1 0.113747,-0.03833 4.2433448,4.2433448 0 0 1 0.447411,0.136753 1.9085509,1.9085509 0 0 0 0.866332,0.167826 0.11473413,0.11473413 0 1 1 0.02696,0.227879 2.1057678,2.1057678 0 0 1 -0.947798,-0.168845 4.077937,4.077937 0 0 0 -0.423704,-0.125527 0.11451305,0.11451305 0 0 1 -0.08571,-0.136226 z"
     fill="#010101"
     id="path363"
     style="stroke-width:0.636184" /><path
     d="M 20.560759,19.992397 C 20.20385,18.951511 19.130858,18.525434 18.481372,17.725119 a 0.78886769,0.78886769 0 0 1 0.06713,-1.305303 0.41351936,0.41351936 0 0 1 0.09119,-0.352754 c 1.111149,-1.003286 2.268507,0.422595 3.032968,1.143862 0.437671,1.129689 -0.427049,2.030085 -1.111895,2.781473 z"
     fill="#f6d2a2"
     id="path365"
     style="stroke-width:0.636184" /><path
     d="m 18.078719,17.216247 a 0.77614401,0.77614401 0 0 1 -0.03633,-0.20031 0.9415518,0.9415518 0 0 1 0.370697,-0.62975 0.38171017,0.38171017 0 0 1 0.107122,-0.336246 c 1.046833,-0.965757 2.173595,0.148863 2.921545,0.886051 l 0.266196,0.255603 c 0.452461,1.139936 -0.387802,2.068225 -1.067523,2.812217 l -0.194693,0.209888 -0.03407,-0.187792 a 3.2890693,3.2890693 0 0 0 -1.19491,-1.419067 5.8465275,5.8465275 0 0 1 -0.871399,-0.811788 1.2723672,1.2723672 0 0 1 -0.266628,-0.578805 z m 0.589875,-0.882872 a 0.31172997,0.31172997 0 0 1 0.02384,0.131454 l 0.0056,0.0313 -0.09107,0.06824 a 0.73797299,0.73797299 0 0 0 -0.305769,0.488661 0.87157152,0.87157152 0 0 0 0.263774,0.598718 5.6811197,5.6811197 0 0 0 0.840683,0.785031 3.8171017,3.8171017 0 0 1 1.19381,1.34168 c 0.646704,-0.712141 1.337841,-1.535791 0.97179,-2.484502 l -0.25136,-0.24535 c -0.782658,-0.750296 -1.715459,-1.686726 -2.598343,-0.886485 a 0.18449325,0.18449325 0 0 0 -0.06379,0.147349 z"
     fill="#010101"
     id="path367"
     style="stroke-width:0.636184" /><path
     style="stroke-width:0.636184"
     d="m 59.06379,31.249559 c 0.426525,0.569198 0.932248,0.897735 1.554959,0.409777 0.622714,-0.487958 0.394779,-1.067316 -0.0272,-1.611477 z"
     id="path1415" /><path
     style="stroke-width:0.636184"
     d="M 54.539997,9.7313094 C 54.73944,9.0485697 55.097558,8.5633458 55.851979,8.8015123 56.6064,9.039679 56.596465,9.6621824 56.39248,10.319884 Z"
     id="path1413" /><path
     style="stroke-width:0.636184"
     d="m 18.432967,16.460168 a 0.11451305,0.11451305 0 0 1 0.129796,-0.139925 1.7431432,1.7431432 0 0 1 0.885874,0.214323 2.684695,2.684695 0 0 0 0.437506,0.166337 0.11530585,0.11530585 0 0 1 -0.05643,0.223601 2.9009973,2.9009973 0 0 1 -0.478471,-0.178304 1.5459263,1.5459263 0 0 0 -0.788019,-0.17388 0.11451305,0.11451305 0 0 1 -0.130259,-0.112152 z"
     id="path369" /><path
     d="m 62.424745,19.622476 c 0.82204,4.532019 0.963612,8.877116 -3.013968,11.900357 -4.516376,2.868813 -11.482329,3.533292 -14.772851,4.044071 -3.290522,0.510779 -14.904834,1.561343 -19.383611,0.252995 -6.567393,-1.475179 -4.639919,-5.271367 -5.302091,-9.741866 -0.508366,-3.515618 -0.146893,-7.939029 2.700416,-10.492165 3.335713,-2.997337 12.268021,-2.910139 16.461375,-3.496179 4.968973,-0.694397 9.641082,-3.1323954 14.767639,-2.3876756 5.313184,0.7755266 7.268229,5.1020346 8.541955,9.9142026"
     fill="#74cddd"
     id="path379"
     style="stroke:#000000;stroke-width:0.258416;stroke-dasharray:none;stroke-opacity:1" /><path
     d="m 56.490777,21.519945 c -4.578465,1.670999 -1.931683,9.169516 2.637236,7.196362 4.094841,-1.770778 1.695728,-8.260321 -2.637236,-7.196362"
     fill="#ffffff"
     id="path383"
     style="stroke-width:0.636184" /><path
     d="m 54.071236,25.754146 a 4.3960288,4.3960288 0 0 1 -0.025,-1.456701 3.5562664,3.5562664 0 0 1 2.406456,-2.880508 3.6644177,3.6644177 0 0 1 2.95643,0.472388 4.3324104,4.3324104 0 0 1 1.706106,2.276796 4.0715751,4.0715751 0 0 1 0.0228,2.620914 3.4672007,3.4672007 0 0 1 -1.965678,2.031146 3.3590496,3.3590496 0 0 1 -3.53005,-0.355417 4.4532853,4.4532853 0 0 1 -1.571066,-2.708625 z m 2.452498,-4.123797 a 3.339964,3.339964 0 0 0 -2.257298,2.704743 4.3451341,4.3451341 0 0 0 1.5199,3.959309 3.1809181,3.1809181 0 0 0 3.292213,0.327424 3.3972205,3.3972205 0 0 0 1.830666,-4.379548 3.6707795,3.6707795 0 0 0 -4.38548,-2.611933 z"
     fill="#010101"
     id="path385"
     style="stroke-width:0.636184" /><path
     d="m 54.046096,12.42655 c -3.921869,1.797597 -1.669525,8.190912 2.411335,7.198544 4.891794,-1.191184 2.488737,-9.128312 -2.411335,-7.198544"
     fill="#ffffff"
     id="path387"
     style="stroke-width:0.636184" /><path
     d="m 51.973752,16.436135 a 4.1097461,4.1097461 0 0 1 0.120908,-2.006883 3.4672007,3.4672007 0 0 1 1.914493,-2.09945 3.5053718,3.5053718 0 0 1 3.750188,0.535312 4.5169037,4.5169037 0 0 1 1.364975,4.317159 3.3972205,3.3972205 0 0 1 -2.641321,2.548102 c -2.167049,0.528849 -3.759673,-0.979722 -4.349639,-2.592573 a 4.6505022,4.6505022 0 0 1 -0.1596,-0.701667 z m 2.120092,-3.888933 a 3.4735626,3.4735626 0 0 0 -1.762452,4.541748 c 0.536513,1.532027 2.036988,2.960327 4.073719,2.461581 a 3.1809181,3.1809181 0 0 0 2.488759,-2.391117 4.2942395,4.2942395 0 0 0 -1.300199,-4.10261 3.301793,3.301793 0 0 0 -3.499827,-0.509602 z"
     fill="#010101"
     id="path389"
     style="stroke-width:0.636184" /><path
     d="m 50.952829,23.461965 a 10.815122,10.815122 0 0 1 -1.959284,0.355385 1.2723672,1.2723672 0 0 1 -0.583542,-0.650634 1.0942359,1.0942359 0 0 1 0.477231,-0.933562 14.136,14.136 0 0 1 2.226151,-0.3456 z"
     fill="#ffffff"
     id="path391"
     style="stroke-width:0.636184" /><path
     d="m 48.328597,23.252603 -0.0056,-0.0313 a 1.2023871,1.2023871 0 0 1 0.542711,-1.035957 7.5578614,7.5578614 0 0 1 1.521105,-0.275906 c 0.23161,-0.042 0.482549,-0.04873 0.721554,-0.08562 l 0.187791,-0.03407 -0.212993,1.784359 -0.106414,0.0193 c -0.200311,0.03633 -0.41314,0.07494 -0.620294,0.144841 a 5.4520936,5.4520936 0 0 1 -1.345864,0.244115 l -0.0313,0.0056 a 0.95427539,0.95427539 0 0 1 -0.533541,-0.517456 l -0.110358,-0.180374 z m 0.657013,-0.869186 a 0.97336095,0.97336095 0 0 0 -0.429946,0.802137 l 0.100648,0.162782 a 0.76342035,0.76342035 0 0 0 0.40839,0.397916 5.3630279,5.3630279 0 0 0 1.251938,-0.227083 c 0.194052,-0.0352 0.381843,-0.06926 0.563957,-0.134621 l 0.154756,-1.3212 c -0.19405,0.0352 -0.388102,0.07039 -0.582705,0.06689 a 7.341559,7.341559 0 0 0 -1.461915,0.245772 z"
     fill="#010101"
     id="path393"
     style="stroke-width:0.636184" /><ellipse
     cx="26.462896"
     cy="-50.39098"
     fill="#010101"
     rx="1.1324068"
     ry="1.2278343"
     id="ellipse395"
     transform="rotate(79.719175)"
     style="stroke-width:0.636184" /><ellipse
     cx="26.978205"
     cy="-50.111057"
     fill="#ffffff"
     rx="0.26719713"
     ry="0.31173"
     id="ellipse397"
     transform="rotate(79.719175)"
     style="stroke-width:0.636184" /><ellipse
     cx="36.035122"
     cy="-50.736683"
     fill="#010101"
     rx="1.1133214"
     ry="1.2278343"
     id="ellipse399"
     transform="rotate(79.719175)"
     style="stroke-width:0.636184" /><ellipse
     cx="36.537708"
     cy="-50.456757"
     fill="#ffffff"
     rx="0.26083529"
     ry="0.31173"
     id="ellipse401"
     transform="rotate(79.719175)"
     style="stroke-width:0.636184" /><path
     d="m 50.479016,20.315085 c -1.265385,-0.274797 -3.481644,0.909542 -1.508136,1.915827 a 14.136,14.136 0 0 1 2.226152,-0.345599 z"
     fill="#ffffff"
     id="path403"
     style="stroke-width:0.636184" /><path
     d="m 48.073861,21.4561 a 0.63618362,0.63618362 0 0 1 0.02859,-0.341399 c 0.210215,-0.587709 1.408237,-1.147693 2.415316,-0.942423 l 0.05007,-0.0091 0.816363,1.791617 -0.150234,0.02725 c -0.244126,0.04427 -0.488255,0.08856 -0.727811,0.08675 a 7.2715788,7.2715788 0 0 0 -1.477289,0.267959 l -0.08138,0.01477 a 1.3423475,1.3423475 0 0 1 -0.873639,-0.895435 z m 2.322614,-1.061386 c -0.781206,-0.136326 -1.888127,0.284288 -2.072137,0.802588 -0.132739,0.373221 0.273411,0.687491 0.659121,0.889084 a 7.7805257,7.7805257 0 0 1 1.477288,-0.267956 c 0.181532,-0.03292 0.375583,-0.06813 0.570186,-0.06464 z"
     fill="#010101"
     id="path405"
     style="stroke-width:0.636184" /><path
     d="m 52.771142,20.048038 a 1.4568605,1.4568605 0 0 0 -2.216561,-0.813489 c -1.013203,0.830344 0.465759,1.997455 0.522291,2.879459 0.18053,0.995292 -0.722358,2.006062 0.286812,2.650615 1.125223,0.714024 1.80865,-0.722465 2.072557,-1.798371 z"
     fill="#f6d2a2"
     id="path407"
     style="stroke-width:0.636184" /><path
     d="m 50.759646,24.143571 a 2.5447345,2.5447345 0 0 1 0.09088,-0.960469 2.8055697,2.8055697 0 0 0 0.09603,-1.038989 2.5447345,2.5447345 0 0 0 -0.413827,-0.998235 c -0.371296,-0.656805 -0.790919,-1.401829 -0.06517,-1.998994 a 1.3741566,1.3741566 0 0 1 1.314537,-0.238439 1.6286301,1.6286301 0 0 1 1.084661,1.096387 l 0.677587,2.987072 c -0.179004,0.795415 -0.595355,1.743796 -1.232769,2.008123 a 1.2151106,1.2151106 0 0 1 -1.551928,-0.856455 z m 0.416799,-2.015295 a 2.9900631,2.9900631 0 0 1 -0.101163,1.117514 c -0.135684,0.606518 -0.236598,1.083883 0.333408,1.44602 a 0.84612421,0.84612421 0 0 0 0.803975,0.119258 c 0.553183,-0.229651 0.934801,-1.120006 1.092144,-1.820974 L 52.657905,20.10091 a 1.4123276,1.4123276 0 0 0 -0.931667,-0.930169 1.1514924,1.1514924 0 0 0 -1.095445,0.198698 c -0.561251,0.470343 -0.23887,1.071364 0.1165,1.711659 a 2.6974185,2.6974185 0 0 1 0.429172,1.047177 z"
     fill="#231f20"
     id="path409"
     style="stroke-width:0.636184" /><path
     d="m 52.788845,19.896118 c 1.552436,-0.352711 2.295472,2.60309 1.04452,3.192069 -1.250953,0.588981 -2.18271,-2.83691 -1.04452,-3.192069 z"
     fill="#010101"
     id="path411"
     style="stroke-width:0.636184" /><g
     id="g732"
     transform="matrix(0.85281183,0.07040124,-0.07040124,0.85281183,7.5440651,4.2447393)"><g
       id="g610"
       transform="matrix(0.94794952,-0.31842066,-0.31842066,-0.94794952,5.6202358,65.351482)"><path
         d="m 45.371612,36.170837 c -1.374569,0.299043 -1.102963,-1.243824 -0.846161,-1.951469 0.256802,-0.707645 -0.127789,-0.73544 0.646236,-1.035201 a 13.478832,13.478832 0 0 1 1.548188,-0.484107 3.9774823,3.9774823 0 0 1 0.03345,2.738798 c -0.172828,0.446543 -0.847926,1.374026 -1.343882,0.729539"
         fill="#f6d2a2"
         id="path371"
         style="stroke-width:0.743455" /><path
         d="m 44.227937,35.722996 a 3.0407294,3.0407294 0 0 1 0.149526,-1.510155 1.6579038,1.6579038 0 0 0 0.0928,-0.486675 c 0.02357,-0.314188 0.08088,-0.444997 0.60267,-0.623294 l 0.359061,-0.09621 a 9.6649102,9.6649102 0 0 1 1.218368,-0.364945 l 0.172349,-0.04618 0.02886,0.107719 a 4.0890005,4.0890005 0 0 1 0.035,2.830745 1.7099457,1.7099457 0 0 1 -0.999663,1.03754 0.6096328,0.6096328 0 0 1 -0.553368,-0.198082 0.92188374,0.92188374 0 0 1 -0.909235,-0.233574 0.89958011,0.89958011 0 0 1 -0.19637,-0.416888 z m 2.39872,-2.882506 a 10.445538,10.445538 0 0 0 -1.065637,0.331717 l -0.359061,0.09621 c -0.438055,0.117376 -0.4351,0.185855 -0.454958,0.39899 a 1.918113,1.918113 0 0 1 -0.113316,0.553746 1.9404166,1.9404166 0 0 0 -0.03538,1.648901 0.74345463,0.74345463 0 0 0 0.727127,0.128433 l 0.08617,-0.02309 0.01924,0.07181 a 0.37172732,0.37172732 0 0 0 0.359853,0.16527 1.4869093,1.4869093 0 0 0 0.800651,-0.861066 3.7916186,3.7916186 0 0 0 0.03531,-2.510923 z"
         fill="#010101"
         id="path373"
         style="stroke-width:0.743455" /><path
         d="m 45.371612,36.170837 a 1.1077474,1.1077474 0 0 1 0.135752,-0.613635"
         fill="#c7b199"
         id="path375"
         style="stroke-width:0.743455" /><path
         d="m 45.24235,36.205473 -0.03656,-0.136444 a 1.0408365,1.0408365 0 0 1 0.224367,-0.598895 0.13531079,0.13531079 0 1 1 0.213788,0.165923 0.802931,0.802931 45 0 0 -0.123968,0.456541 l 0.02309,0.08617 a 0.15095059,0.15095059 0 0 1 -0.300718,0.0267 z"
         fill="#010101"
         id="path377"
         style="stroke-width:0.743455" /></g><path
       style="fill:none;stroke:#000000;stroke-width:0.264583px;stroke-linecap:butt;stroke-linejoin:miter;stroke-opacity:1"
       d="m 36.296756,20.246362 c 1.162924,-1.207505 3.630109,-0.781905 4.760757,-0.09294"
       id="path724" /></g></svg>
